G04 EAGLE Gerber RS-274X export*
G75*
%MOMM*%
%FSLAX34Y34*%
%LPD*%
%IN*%
%IPPOS*%
%AMOC8*
5,1,8,0,0,1.08239X$1,22.5*%
G01*
%ADD10C,0.254000*%


D10*
X26700Y43400D02*
X26808Y40916D01*
X27133Y38451D01*
X27671Y36024D01*
X28419Y33652D01*
X29370Y31355D01*
X30518Y29150D01*
X31854Y27053D01*
X33368Y25081D01*
X35047Y23247D01*
X36881Y21568D01*
X38853Y20054D01*
X40950Y18718D01*
X43155Y17570D01*
X45452Y16619D01*
X47824Y15871D01*
X50251Y15333D01*
X52716Y15008D01*
X55200Y14900D01*
X378200Y14900D01*
X380684Y15008D01*
X383149Y15333D01*
X385576Y15871D01*
X387948Y16619D01*
X390245Y17570D01*
X392450Y18718D01*
X394547Y20054D01*
X396519Y21568D01*
X398353Y23247D01*
X400032Y25081D01*
X401546Y27053D01*
X402882Y29150D01*
X404030Y31355D01*
X404981Y33652D01*
X405729Y36024D01*
X406267Y38451D01*
X406592Y40916D01*
X406700Y43400D01*
X406700Y45400D01*
X406592Y47884D01*
X406267Y50349D01*
X405729Y52776D01*
X404981Y55148D01*
X404030Y57445D01*
X402882Y59650D01*
X401546Y61747D01*
X400032Y63719D01*
X398353Y65553D01*
X396519Y67232D01*
X394547Y68746D01*
X392450Y70082D01*
X390245Y71230D01*
X387948Y72181D01*
X385576Y72929D01*
X383149Y73467D01*
X380684Y73792D01*
X378200Y73900D01*
X55200Y73900D01*
X52716Y73792D01*
X50251Y73467D01*
X47824Y72929D01*
X45452Y72181D01*
X43155Y71230D01*
X40950Y70082D01*
X38853Y68746D01*
X36881Y67232D01*
X35047Y65553D01*
X33368Y63719D01*
X31854Y61747D01*
X30518Y59650D01*
X29370Y57445D01*
X28419Y55148D01*
X27671Y52776D01*
X27133Y50349D01*
X26808Y47884D01*
X26700Y45400D01*
X26700Y43400D01*
X39700Y43900D02*
X39761Y42506D01*
X39943Y41122D01*
X40245Y39759D01*
X40665Y38428D01*
X41199Y37138D01*
X41844Y35900D01*
X42594Y34723D01*
X43443Y33615D01*
X44386Y32586D01*
X45415Y31643D01*
X46523Y30794D01*
X47700Y30044D01*
X48938Y29399D01*
X50228Y28865D01*
X51559Y28445D01*
X52922Y28143D01*
X54306Y27961D01*
X55700Y27900D01*
X295700Y27900D01*
X297095Y27961D01*
X298478Y28143D01*
X299841Y28445D01*
X301172Y28865D01*
X302462Y29399D01*
X303700Y30044D01*
X304877Y30794D01*
X305985Y31643D01*
X307014Y32586D01*
X307957Y33615D01*
X308806Y34723D01*
X309556Y35900D01*
X310201Y37138D01*
X310735Y38428D01*
X311155Y39759D01*
X311457Y41122D01*
X311639Y42506D01*
X311700Y43900D01*
X311700Y44900D01*
X311639Y46295D01*
X311457Y47678D01*
X311155Y49041D01*
X310735Y50372D01*
X310201Y51662D01*
X309556Y52900D01*
X308806Y54077D01*
X307957Y55185D01*
X307014Y56214D01*
X305985Y57157D01*
X304877Y58006D01*
X303700Y58756D01*
X302462Y59401D01*
X301172Y59935D01*
X299841Y60355D01*
X298478Y60657D01*
X297095Y60839D01*
X295700Y60900D01*
X55700Y60900D01*
X54306Y60839D01*
X52922Y60657D01*
X51559Y60355D01*
X50228Y59935D01*
X48938Y59401D01*
X47700Y58756D01*
X46523Y58006D01*
X45415Y57157D01*
X44386Y56214D01*
X43443Y55185D01*
X42594Y54077D01*
X41844Y52900D01*
X41199Y51662D01*
X40665Y50372D01*
X40245Y49041D01*
X39943Y47678D01*
X39761Y46295D01*
X39700Y44900D01*
X39700Y43900D01*
M02*
