G04 EAGLE Gerber RS-274X export*
G75*
%MOMM*%
%FSLAX34Y34*%
%LPD*%
%IN*%
%IPPOS*%
%AMOC8*
5,1,8,0,0,1.08239X$1,22.5*%
G01*
%ADD10C,0.010000*%
%ADD11C,0.254000*%


D10*
X351200Y-100D02*
X28200Y-100D01*
X27511Y-92D01*
X26823Y-67D01*
X26136Y-25D01*
X25449Y33D01*
X24765Y108D01*
X24082Y199D01*
X23402Y307D01*
X22724Y431D01*
X22050Y571D01*
X21380Y728D01*
X20713Y901D01*
X20051Y1090D01*
X19393Y1295D01*
X18741Y1516D01*
X18094Y1752D01*
X17453Y2004D01*
X16818Y2271D01*
X16190Y2554D01*
X15569Y2852D01*
X14955Y3165D01*
X14349Y3492D01*
X13752Y3834D01*
X13162Y4190D01*
X12582Y4561D01*
X12010Y4945D01*
X11448Y5343D01*
X10896Y5755D01*
X10354Y6179D01*
X9822Y6617D01*
X9301Y7067D01*
X8791Y7530D01*
X8292Y8005D01*
X7805Y8492D01*
X7330Y8991D01*
X6867Y9501D01*
X6417Y10022D01*
X5979Y10554D01*
X5555Y11096D01*
X5143Y11648D01*
X4745Y12210D01*
X4361Y12782D01*
X3990Y13362D01*
X3634Y13952D01*
X3292Y14549D01*
X2965Y15155D01*
X2652Y15769D01*
X2354Y16390D01*
X2071Y17018D01*
X1804Y17653D01*
X1552Y18294D01*
X1316Y18941D01*
X1095Y19593D01*
X890Y20251D01*
X701Y20913D01*
X528Y21580D01*
X371Y22250D01*
X231Y22924D01*
X107Y23602D01*
X-1Y24282D01*
X-92Y24965D01*
X-167Y25649D01*
X-225Y26336D01*
X-267Y27023D01*
X-292Y27711D01*
X-300Y28400D01*
X-300Y30400D01*
X-292Y31089D01*
X-267Y31777D01*
X-225Y32464D01*
X-167Y33151D01*
X-92Y33835D01*
X-1Y34518D01*
X107Y35198D01*
X231Y35876D01*
X371Y36550D01*
X528Y37220D01*
X701Y37887D01*
X890Y38549D01*
X1095Y39207D01*
X1316Y39859D01*
X1552Y40506D01*
X1804Y41147D01*
X2071Y41782D01*
X2354Y42410D01*
X2652Y43031D01*
X2965Y43645D01*
X3292Y44251D01*
X3634Y44848D01*
X3990Y45438D01*
X4361Y46018D01*
X4745Y46590D01*
X5143Y47152D01*
X5555Y47704D01*
X5979Y48246D01*
X6417Y48778D01*
X6867Y49299D01*
X7330Y49809D01*
X7805Y50308D01*
X8292Y50795D01*
X8791Y51270D01*
X9301Y51733D01*
X9822Y52183D01*
X10354Y52621D01*
X10896Y53045D01*
X11448Y53457D01*
X12010Y53855D01*
X12582Y54239D01*
X13162Y54610D01*
X13752Y54966D01*
X14349Y55308D01*
X14955Y55635D01*
X15569Y55948D01*
X16190Y56246D01*
X16818Y56529D01*
X17453Y56796D01*
X18094Y57048D01*
X18741Y57284D01*
X19393Y57505D01*
X20051Y57710D01*
X20713Y57899D01*
X21380Y58072D01*
X22050Y58229D01*
X22724Y58369D01*
X23402Y58493D01*
X24082Y58601D01*
X24765Y58692D01*
X25449Y58767D01*
X26136Y58825D01*
X26823Y58867D01*
X27511Y58892D01*
X28200Y58900D01*
X351200Y58900D01*
X351889Y58892D01*
X352577Y58867D01*
X353264Y58825D01*
X353951Y58767D01*
X354635Y58692D01*
X355318Y58601D01*
X355998Y58493D01*
X356676Y58369D01*
X357350Y58229D01*
X358020Y58072D01*
X358687Y57899D01*
X359349Y57710D01*
X360007Y57505D01*
X360659Y57284D01*
X361306Y57048D01*
X361947Y56796D01*
X362582Y56529D01*
X363210Y56246D01*
X363831Y55948D01*
X364445Y55635D01*
X365051Y55308D01*
X365648Y54966D01*
X366238Y54610D01*
X366818Y54239D01*
X367390Y53855D01*
X367952Y53457D01*
X368504Y53045D01*
X369046Y52621D01*
X369578Y52183D01*
X370099Y51733D01*
X370609Y51270D01*
X371108Y50795D01*
X371595Y50308D01*
X372070Y49809D01*
X372533Y49299D01*
X372983Y48778D01*
X373421Y48246D01*
X373845Y47704D01*
X374257Y47152D01*
X374655Y46590D01*
X375039Y46018D01*
X375410Y45438D01*
X375766Y44848D01*
X376108Y44251D01*
X376435Y43645D01*
X376748Y43031D01*
X377046Y42410D01*
X377329Y41782D01*
X377596Y41147D01*
X377848Y40506D01*
X378084Y39859D01*
X378305Y39207D01*
X378510Y38549D01*
X378699Y37887D01*
X378872Y37220D01*
X379029Y36550D01*
X379169Y35876D01*
X379293Y35198D01*
X379401Y34518D01*
X379492Y33835D01*
X379567Y33151D01*
X379625Y32464D01*
X379667Y31777D01*
X379692Y31089D01*
X379700Y30400D01*
X379700Y28400D01*
X379692Y27711D01*
X379667Y27023D01*
X379625Y26336D01*
X379567Y25649D01*
X379492Y24965D01*
X379401Y24282D01*
X379293Y23602D01*
X379169Y22924D01*
X379029Y22250D01*
X378872Y21580D01*
X378699Y20913D01*
X378510Y20251D01*
X378305Y19593D01*
X378084Y18941D01*
X377848Y18294D01*
X377596Y17653D01*
X377329Y17018D01*
X377046Y16390D01*
X376748Y15769D01*
X376435Y15155D01*
X376108Y14549D01*
X375766Y13952D01*
X375410Y13362D01*
X375039Y12782D01*
X374655Y12210D01*
X374257Y11648D01*
X373845Y11096D01*
X373421Y10554D01*
X372983Y10022D01*
X372533Y9501D01*
X372070Y8991D01*
X371595Y8492D01*
X371108Y8005D01*
X370609Y7530D01*
X370099Y7067D01*
X369578Y6617D01*
X369046Y6179D01*
X368504Y5755D01*
X367952Y5343D01*
X367390Y4945D01*
X366818Y4561D01*
X366238Y4190D01*
X365648Y3834D01*
X365051Y3492D01*
X364445Y3165D01*
X363831Y2852D01*
X363210Y2554D01*
X362582Y2271D01*
X361947Y2004D01*
X361306Y1752D01*
X360659Y1516D01*
X360007Y1295D01*
X359349Y1090D01*
X358687Y901D01*
X358020Y728D01*
X357350Y571D01*
X356676Y431D01*
X355998Y307D01*
X355318Y199D01*
X354635Y108D01*
X353951Y33D01*
X353264Y-25D01*
X352577Y-67D01*
X351889Y-92D01*
X351200Y-100D01*
X268700Y12900D02*
X28700Y12900D01*
X28313Y12905D01*
X27927Y12919D01*
X27541Y12942D01*
X27156Y12975D01*
X26771Y13017D01*
X26388Y13068D01*
X26006Y13128D01*
X25626Y13198D01*
X25247Y13277D01*
X24871Y13365D01*
X24497Y13462D01*
X24125Y13568D01*
X23756Y13683D01*
X23389Y13807D01*
X23026Y13940D01*
X22666Y14081D01*
X22310Y14231D01*
X21958Y14390D01*
X21609Y14557D01*
X21264Y14733D01*
X20924Y14917D01*
X20589Y15108D01*
X20258Y15309D01*
X19932Y15516D01*
X19611Y15732D01*
X19295Y15956D01*
X18985Y16187D01*
X18681Y16425D01*
X18383Y16671D01*
X18090Y16924D01*
X17804Y17184D01*
X17524Y17450D01*
X17250Y17724D01*
X16984Y18004D01*
X16724Y18290D01*
X16471Y18583D01*
X16225Y18881D01*
X15987Y19185D01*
X15756Y19495D01*
X15532Y19811D01*
X15316Y20132D01*
X15109Y20458D01*
X14908Y20789D01*
X14717Y21124D01*
X14533Y21464D01*
X14357Y21809D01*
X14190Y22158D01*
X14031Y22510D01*
X13881Y22866D01*
X13740Y23226D01*
X13607Y23589D01*
X13483Y23956D01*
X13368Y24325D01*
X13262Y24697D01*
X13165Y25071D01*
X13077Y25447D01*
X12998Y25826D01*
X12928Y26206D01*
X12868Y26588D01*
X12817Y26971D01*
X12775Y27356D01*
X12742Y27741D01*
X12719Y28127D01*
X12705Y28513D01*
X12700Y28900D01*
X12700Y29900D01*
X12705Y30287D01*
X12719Y30673D01*
X12742Y31059D01*
X12775Y31444D01*
X12817Y31829D01*
X12868Y32212D01*
X12928Y32594D01*
X12998Y32974D01*
X13077Y33353D01*
X13165Y33729D01*
X13262Y34103D01*
X13368Y34475D01*
X13483Y34844D01*
X13607Y35211D01*
X13740Y35574D01*
X13881Y35934D01*
X14031Y36290D01*
X14190Y36642D01*
X14357Y36991D01*
X14533Y37336D01*
X14717Y37676D01*
X14908Y38011D01*
X15109Y38342D01*
X15316Y38668D01*
X15532Y38989D01*
X15756Y39305D01*
X15987Y39615D01*
X16225Y39919D01*
X16471Y40217D01*
X16724Y40510D01*
X16984Y40796D01*
X17250Y41076D01*
X17524Y41350D01*
X17804Y41616D01*
X18090Y41876D01*
X18383Y42129D01*
X18681Y42375D01*
X18985Y42613D01*
X19295Y42844D01*
X19611Y43068D01*
X19932Y43284D01*
X20258Y43491D01*
X20589Y43692D01*
X20924Y43883D01*
X21264Y44067D01*
X21609Y44243D01*
X21958Y44410D01*
X22310Y44569D01*
X22666Y44719D01*
X23026Y44860D01*
X23389Y44993D01*
X23756Y45117D01*
X24125Y45232D01*
X24497Y45338D01*
X24871Y45435D01*
X25247Y45523D01*
X25626Y45602D01*
X26006Y45672D01*
X26388Y45732D01*
X26771Y45783D01*
X27156Y45825D01*
X27541Y45858D01*
X27927Y45881D01*
X28313Y45895D01*
X28700Y45900D01*
X268700Y45900D01*
X269087Y45895D01*
X269473Y45881D01*
X269859Y45858D01*
X270244Y45825D01*
X270629Y45783D01*
X271012Y45732D01*
X271394Y45672D01*
X271774Y45602D01*
X272153Y45523D01*
X272529Y45435D01*
X272903Y45338D01*
X273275Y45232D01*
X273644Y45117D01*
X274011Y44993D01*
X274374Y44860D01*
X274734Y44719D01*
X275090Y44569D01*
X275442Y44410D01*
X275791Y44243D01*
X276136Y44067D01*
X276476Y43883D01*
X276811Y43692D01*
X277142Y43491D01*
X277468Y43284D01*
X277789Y43068D01*
X278105Y42844D01*
X278415Y42613D01*
X278719Y42375D01*
X279017Y42129D01*
X279310Y41876D01*
X279596Y41616D01*
X279876Y41350D01*
X280150Y41076D01*
X280416Y40796D01*
X280676Y40510D01*
X280929Y40217D01*
X281175Y39919D01*
X281413Y39615D01*
X281644Y39305D01*
X281868Y38989D01*
X282084Y38668D01*
X282291Y38342D01*
X282492Y38011D01*
X282683Y37676D01*
X282867Y37336D01*
X283043Y36991D01*
X283210Y36642D01*
X283369Y36290D01*
X283519Y35934D01*
X283660Y35574D01*
X283793Y35211D01*
X283917Y34844D01*
X284032Y34475D01*
X284138Y34103D01*
X284235Y33729D01*
X284323Y33353D01*
X284402Y32974D01*
X284472Y32594D01*
X284532Y32212D01*
X284583Y31829D01*
X284625Y31444D01*
X284658Y31059D01*
X284681Y30673D01*
X284695Y30287D01*
X284700Y29900D01*
X284700Y28900D01*
X284695Y28513D01*
X284681Y28127D01*
X284658Y27741D01*
X284625Y27356D01*
X284583Y26971D01*
X284532Y26588D01*
X284472Y26206D01*
X284402Y25826D01*
X284323Y25447D01*
X284235Y25071D01*
X284138Y24697D01*
X284032Y24325D01*
X283917Y23956D01*
X283793Y23589D01*
X283660Y23226D01*
X283519Y22866D01*
X283369Y22510D01*
X283210Y22158D01*
X283043Y21809D01*
X282867Y21464D01*
X282683Y21124D01*
X282492Y20789D01*
X282291Y20458D01*
X282084Y20132D01*
X281868Y19811D01*
X281644Y19495D01*
X281413Y19185D01*
X281175Y18881D01*
X280929Y18583D01*
X280676Y18290D01*
X280416Y18004D01*
X280150Y17724D01*
X279876Y17450D01*
X279596Y17184D01*
X279310Y16924D01*
X279017Y16671D01*
X278719Y16425D01*
X278415Y16187D01*
X278105Y15956D01*
X277789Y15732D01*
X277468Y15516D01*
X277142Y15309D01*
X276811Y15108D01*
X276476Y14917D01*
X276136Y14733D01*
X275791Y14557D01*
X275442Y14390D01*
X275090Y14231D01*
X274734Y14081D01*
X274374Y13940D01*
X274011Y13807D01*
X273644Y13683D01*
X273275Y13568D01*
X272903Y13462D01*
X272529Y13365D01*
X272153Y13277D01*
X271774Y13198D01*
X271394Y13128D01*
X271012Y13068D01*
X270629Y13017D01*
X270244Y12975D01*
X269859Y12942D01*
X269473Y12919D01*
X269087Y12905D01*
X268700Y12900D01*
D11*
X-300Y28400D02*
X-192Y25916D01*
X133Y23451D01*
X671Y21024D01*
X1419Y18652D01*
X2370Y16355D01*
X3518Y14150D01*
X4854Y12053D01*
X6368Y10081D01*
X8047Y8247D01*
X9881Y6568D01*
X11853Y5054D01*
X13950Y3718D01*
X16155Y2570D01*
X18452Y1619D01*
X20824Y871D01*
X23251Y333D01*
X25716Y8D01*
X28200Y-100D01*
X351200Y-100D01*
X353684Y8D01*
X356149Y333D01*
X358576Y871D01*
X360948Y1619D01*
X363245Y2570D01*
X365450Y3718D01*
X367547Y5054D01*
X369519Y6568D01*
X371353Y8247D01*
X373032Y10081D01*
X374546Y12053D01*
X375882Y14150D01*
X377030Y16355D01*
X377981Y18652D01*
X378729Y21024D01*
X379267Y23451D01*
X379592Y25916D01*
X379700Y28400D01*
X379700Y30400D01*
X379592Y32884D01*
X379267Y35349D01*
X378729Y37776D01*
X377981Y40148D01*
X377030Y42445D01*
X375882Y44650D01*
X374546Y46747D01*
X373032Y48719D01*
X371353Y50553D01*
X369519Y52232D01*
X367547Y53746D01*
X365450Y55082D01*
X363245Y56230D01*
X360948Y57181D01*
X358576Y57929D01*
X356149Y58467D01*
X353684Y58792D01*
X351200Y58900D01*
X28200Y58900D01*
X25716Y58792D01*
X23251Y58467D01*
X20824Y57929D01*
X18452Y57181D01*
X16155Y56230D01*
X13950Y55082D01*
X11853Y53746D01*
X9881Y52232D01*
X8047Y50553D01*
X6368Y48719D01*
X4854Y46747D01*
X3518Y44650D01*
X2370Y42445D01*
X1419Y40148D01*
X671Y37776D01*
X133Y35349D01*
X-192Y32884D01*
X-300Y30400D01*
X-300Y28400D01*
X12700Y28900D02*
X12761Y27506D01*
X12943Y26122D01*
X13245Y24759D01*
X13665Y23428D01*
X14199Y22138D01*
X14844Y20900D01*
X15594Y19723D01*
X16443Y18615D01*
X17386Y17586D01*
X18415Y16643D01*
X19523Y15794D01*
X20700Y15044D01*
X21938Y14399D01*
X23228Y13865D01*
X24559Y13445D01*
X25922Y13143D01*
X27306Y12961D01*
X28700Y12900D01*
X268700Y12900D01*
X270095Y12961D01*
X271478Y13143D01*
X272841Y13445D01*
X274172Y13865D01*
X275462Y14399D01*
X276700Y15044D01*
X277877Y15794D01*
X278985Y16643D01*
X280014Y17586D01*
X280957Y18615D01*
X281806Y19723D01*
X282556Y20900D01*
X283201Y22138D01*
X283735Y23428D01*
X284155Y24759D01*
X284457Y26122D01*
X284639Y27506D01*
X284700Y28900D01*
X284700Y29900D01*
X284639Y31295D01*
X284457Y32678D01*
X284155Y34041D01*
X283735Y35372D01*
X283201Y36662D01*
X282556Y37900D01*
X281806Y39077D01*
X280957Y40185D01*
X280014Y41214D01*
X278985Y42157D01*
X277877Y43006D01*
X276700Y43756D01*
X275462Y44401D01*
X274172Y44935D01*
X272841Y45355D01*
X271478Y45657D01*
X270095Y45839D01*
X268700Y45900D01*
X28700Y45900D01*
X27306Y45839D01*
X25922Y45657D01*
X24559Y45355D01*
X23228Y44935D01*
X21938Y44401D01*
X20700Y43756D01*
X19523Y43006D01*
X18415Y42157D01*
X17386Y41214D01*
X16443Y40185D01*
X15594Y39077D01*
X14844Y37900D01*
X14199Y36662D01*
X13665Y35372D01*
X13245Y34041D01*
X12943Y32678D01*
X12761Y31295D01*
X12700Y29900D01*
X12700Y28900D01*
M02*
