G04 EAGLE Gerber RS-274X export*
G75*
%MOMM*%
%FSLAX34Y34*%
%LPD*%
%IN*%
%IPPOS*%
%AMOC8*
5,1,8,0,0,1.08239X$1,22.5*%
G01*
%ADD10C,0.010000*%
%ADD11C,0.254000*%


D10*
X378200Y14900D02*
X55200Y14900D01*
X54511Y14908D01*
X53823Y14933D01*
X53136Y14975D01*
X52449Y15033D01*
X51765Y15108D01*
X51082Y15199D01*
X50402Y15307D01*
X49724Y15431D01*
X49050Y15571D01*
X48380Y15728D01*
X47713Y15901D01*
X47051Y16090D01*
X46393Y16295D01*
X45741Y16516D01*
X45094Y16752D01*
X44453Y17004D01*
X43818Y17271D01*
X43190Y17554D01*
X42569Y17852D01*
X41955Y18165D01*
X41349Y18492D01*
X40752Y18834D01*
X40162Y19190D01*
X39582Y19561D01*
X39010Y19945D01*
X38448Y20343D01*
X37896Y20755D01*
X37354Y21179D01*
X36822Y21617D01*
X36301Y22067D01*
X35791Y22530D01*
X35292Y23005D01*
X34805Y23492D01*
X34330Y23991D01*
X33867Y24501D01*
X33417Y25022D01*
X32979Y25554D01*
X32555Y26096D01*
X32143Y26648D01*
X31745Y27210D01*
X31361Y27782D01*
X30990Y28362D01*
X30634Y28952D01*
X30292Y29549D01*
X29965Y30155D01*
X29652Y30769D01*
X29354Y31390D01*
X29071Y32018D01*
X28804Y32653D01*
X28552Y33294D01*
X28316Y33941D01*
X28095Y34593D01*
X27890Y35251D01*
X27701Y35913D01*
X27528Y36580D01*
X27371Y37250D01*
X27231Y37924D01*
X27107Y38602D01*
X26999Y39282D01*
X26908Y39965D01*
X26833Y40649D01*
X26775Y41336D01*
X26733Y42023D01*
X26708Y42711D01*
X26700Y43400D01*
X26700Y45400D01*
X26708Y46089D01*
X26733Y46777D01*
X26775Y47464D01*
X26833Y48151D01*
X26908Y48835D01*
X26999Y49518D01*
X27107Y50198D01*
X27231Y50876D01*
X27371Y51550D01*
X27528Y52220D01*
X27701Y52887D01*
X27890Y53549D01*
X28095Y54207D01*
X28316Y54859D01*
X28552Y55506D01*
X28804Y56147D01*
X29071Y56782D01*
X29354Y57410D01*
X29652Y58031D01*
X29965Y58645D01*
X30292Y59251D01*
X30634Y59848D01*
X30990Y60438D01*
X31361Y61018D01*
X31745Y61590D01*
X32143Y62152D01*
X32555Y62704D01*
X32979Y63246D01*
X33417Y63778D01*
X33867Y64299D01*
X34330Y64809D01*
X34805Y65308D01*
X35292Y65795D01*
X35791Y66270D01*
X36301Y66733D01*
X36822Y67183D01*
X37354Y67621D01*
X37896Y68045D01*
X38448Y68457D01*
X39010Y68855D01*
X39582Y69239D01*
X40162Y69610D01*
X40752Y69966D01*
X41349Y70308D01*
X41955Y70635D01*
X42569Y70948D01*
X43190Y71246D01*
X43818Y71529D01*
X44453Y71796D01*
X45094Y72048D01*
X45741Y72284D01*
X46393Y72505D01*
X47051Y72710D01*
X47713Y72899D01*
X48380Y73072D01*
X49050Y73229D01*
X49724Y73369D01*
X50402Y73493D01*
X51082Y73601D01*
X51765Y73692D01*
X52449Y73767D01*
X53136Y73825D01*
X53823Y73867D01*
X54511Y73892D01*
X55200Y73900D01*
X378200Y73900D01*
X378889Y73892D01*
X379577Y73867D01*
X380264Y73825D01*
X380951Y73767D01*
X381635Y73692D01*
X382318Y73601D01*
X382998Y73493D01*
X383676Y73369D01*
X384350Y73229D01*
X385020Y73072D01*
X385687Y72899D01*
X386349Y72710D01*
X387007Y72505D01*
X387659Y72284D01*
X388306Y72048D01*
X388947Y71796D01*
X389582Y71529D01*
X390210Y71246D01*
X390831Y70948D01*
X391445Y70635D01*
X392051Y70308D01*
X392648Y69966D01*
X393238Y69610D01*
X393818Y69239D01*
X394390Y68855D01*
X394952Y68457D01*
X395504Y68045D01*
X396046Y67621D01*
X396578Y67183D01*
X397099Y66733D01*
X397609Y66270D01*
X398108Y65795D01*
X398595Y65308D01*
X399070Y64809D01*
X399533Y64299D01*
X399983Y63778D01*
X400421Y63246D01*
X400845Y62704D01*
X401257Y62152D01*
X401655Y61590D01*
X402039Y61018D01*
X402410Y60438D01*
X402766Y59848D01*
X403108Y59251D01*
X403435Y58645D01*
X403748Y58031D01*
X404046Y57410D01*
X404329Y56782D01*
X404596Y56147D01*
X404848Y55506D01*
X405084Y54859D01*
X405305Y54207D01*
X405510Y53549D01*
X405699Y52887D01*
X405872Y52220D01*
X406029Y51550D01*
X406169Y50876D01*
X406293Y50198D01*
X406401Y49518D01*
X406492Y48835D01*
X406567Y48151D01*
X406625Y47464D01*
X406667Y46777D01*
X406692Y46089D01*
X406700Y45400D01*
X406700Y43400D01*
X406692Y42711D01*
X406667Y42023D01*
X406625Y41336D01*
X406567Y40649D01*
X406492Y39965D01*
X406401Y39282D01*
X406293Y38602D01*
X406169Y37924D01*
X406029Y37250D01*
X405872Y36580D01*
X405699Y35913D01*
X405510Y35251D01*
X405305Y34593D01*
X405084Y33941D01*
X404848Y33294D01*
X404596Y32653D01*
X404329Y32018D01*
X404046Y31390D01*
X403748Y30769D01*
X403435Y30155D01*
X403108Y29549D01*
X402766Y28952D01*
X402410Y28362D01*
X402039Y27782D01*
X401655Y27210D01*
X401257Y26648D01*
X400845Y26096D01*
X400421Y25554D01*
X399983Y25022D01*
X399533Y24501D01*
X399070Y23991D01*
X398595Y23492D01*
X398108Y23005D01*
X397609Y22530D01*
X397099Y22067D01*
X396578Y21617D01*
X396046Y21179D01*
X395504Y20755D01*
X394952Y20343D01*
X394390Y19945D01*
X393818Y19561D01*
X393238Y19190D01*
X392648Y18834D01*
X392051Y18492D01*
X391445Y18165D01*
X390831Y17852D01*
X390210Y17554D01*
X389582Y17271D01*
X388947Y17004D01*
X388306Y16752D01*
X387659Y16516D01*
X387007Y16295D01*
X386349Y16090D01*
X385687Y15901D01*
X385020Y15728D01*
X384350Y15571D01*
X383676Y15431D01*
X382998Y15307D01*
X382318Y15199D01*
X381635Y15108D01*
X380951Y15033D01*
X380264Y14975D01*
X379577Y14933D01*
X378889Y14908D01*
X378200Y14900D01*
X295700Y27900D02*
X55700Y27900D01*
X55313Y27905D01*
X54927Y27919D01*
X54541Y27942D01*
X54156Y27975D01*
X53771Y28017D01*
X53388Y28068D01*
X53006Y28128D01*
X52626Y28198D01*
X52247Y28277D01*
X51871Y28365D01*
X51497Y28462D01*
X51125Y28568D01*
X50756Y28683D01*
X50389Y28807D01*
X50026Y28940D01*
X49666Y29081D01*
X49310Y29231D01*
X48958Y29390D01*
X48609Y29557D01*
X48264Y29733D01*
X47924Y29917D01*
X47589Y30108D01*
X47258Y30309D01*
X46932Y30516D01*
X46611Y30732D01*
X46295Y30956D01*
X45985Y31187D01*
X45681Y31425D01*
X45383Y31671D01*
X45090Y31924D01*
X44804Y32184D01*
X44524Y32450D01*
X44250Y32724D01*
X43984Y33004D01*
X43724Y33290D01*
X43471Y33583D01*
X43225Y33881D01*
X42987Y34185D01*
X42756Y34495D01*
X42532Y34811D01*
X42316Y35132D01*
X42109Y35458D01*
X41908Y35789D01*
X41717Y36124D01*
X41533Y36464D01*
X41357Y36809D01*
X41190Y37158D01*
X41031Y37510D01*
X40881Y37866D01*
X40740Y38226D01*
X40607Y38589D01*
X40483Y38956D01*
X40368Y39325D01*
X40262Y39697D01*
X40165Y40071D01*
X40077Y40447D01*
X39998Y40826D01*
X39928Y41206D01*
X39868Y41588D01*
X39817Y41971D01*
X39775Y42356D01*
X39742Y42741D01*
X39719Y43127D01*
X39705Y43513D01*
X39700Y43900D01*
X39700Y44900D01*
X39705Y45287D01*
X39719Y45673D01*
X39742Y46059D01*
X39775Y46444D01*
X39817Y46829D01*
X39868Y47212D01*
X39928Y47594D01*
X39998Y47974D01*
X40077Y48353D01*
X40165Y48729D01*
X40262Y49103D01*
X40368Y49475D01*
X40483Y49844D01*
X40607Y50211D01*
X40740Y50574D01*
X40881Y50934D01*
X41031Y51290D01*
X41190Y51642D01*
X41357Y51991D01*
X41533Y52336D01*
X41717Y52676D01*
X41908Y53011D01*
X42109Y53342D01*
X42316Y53668D01*
X42532Y53989D01*
X42756Y54305D01*
X42987Y54615D01*
X43225Y54919D01*
X43471Y55217D01*
X43724Y55510D01*
X43984Y55796D01*
X44250Y56076D01*
X44524Y56350D01*
X44804Y56616D01*
X45090Y56876D01*
X45383Y57129D01*
X45681Y57375D01*
X45985Y57613D01*
X46295Y57844D01*
X46611Y58068D01*
X46932Y58284D01*
X47258Y58491D01*
X47589Y58692D01*
X47924Y58883D01*
X48264Y59067D01*
X48609Y59243D01*
X48958Y59410D01*
X49310Y59569D01*
X49666Y59719D01*
X50026Y59860D01*
X50389Y59993D01*
X50756Y60117D01*
X51125Y60232D01*
X51497Y60338D01*
X51871Y60435D01*
X52247Y60523D01*
X52626Y60602D01*
X53006Y60672D01*
X53388Y60732D01*
X53771Y60783D01*
X54156Y60825D01*
X54541Y60858D01*
X54927Y60881D01*
X55313Y60895D01*
X55700Y60900D01*
X295700Y60900D01*
X296087Y60895D01*
X296473Y60881D01*
X296859Y60858D01*
X297244Y60825D01*
X297629Y60783D01*
X298012Y60732D01*
X298394Y60672D01*
X298774Y60602D01*
X299153Y60523D01*
X299529Y60435D01*
X299903Y60338D01*
X300275Y60232D01*
X300644Y60117D01*
X301011Y59993D01*
X301374Y59860D01*
X301734Y59719D01*
X302090Y59569D01*
X302442Y59410D01*
X302791Y59243D01*
X303136Y59067D01*
X303476Y58883D01*
X303811Y58692D01*
X304142Y58491D01*
X304468Y58284D01*
X304789Y58068D01*
X305105Y57844D01*
X305415Y57613D01*
X305719Y57375D01*
X306017Y57129D01*
X306310Y56876D01*
X306596Y56616D01*
X306876Y56350D01*
X307150Y56076D01*
X307416Y55796D01*
X307676Y55510D01*
X307929Y55217D01*
X308175Y54919D01*
X308413Y54615D01*
X308644Y54305D01*
X308868Y53989D01*
X309084Y53668D01*
X309291Y53342D01*
X309492Y53011D01*
X309683Y52676D01*
X309867Y52336D01*
X310043Y51991D01*
X310210Y51642D01*
X310369Y51290D01*
X310519Y50934D01*
X310660Y50574D01*
X310793Y50211D01*
X310917Y49844D01*
X311032Y49475D01*
X311138Y49103D01*
X311235Y48729D01*
X311323Y48353D01*
X311402Y47974D01*
X311472Y47594D01*
X311532Y47212D01*
X311583Y46829D01*
X311625Y46444D01*
X311658Y46059D01*
X311681Y45673D01*
X311695Y45287D01*
X311700Y44900D01*
X311700Y43900D01*
X311695Y43513D01*
X311681Y43127D01*
X311658Y42741D01*
X311625Y42356D01*
X311583Y41971D01*
X311532Y41588D01*
X311472Y41206D01*
X311402Y40826D01*
X311323Y40447D01*
X311235Y40071D01*
X311138Y39697D01*
X311032Y39325D01*
X310917Y38956D01*
X310793Y38589D01*
X310660Y38226D01*
X310519Y37866D01*
X310369Y37510D01*
X310210Y37158D01*
X310043Y36809D01*
X309867Y36464D01*
X309683Y36124D01*
X309492Y35789D01*
X309291Y35458D01*
X309084Y35132D01*
X308868Y34811D01*
X308644Y34495D01*
X308413Y34185D01*
X308175Y33881D01*
X307929Y33583D01*
X307676Y33290D01*
X307416Y33004D01*
X307150Y32724D01*
X306876Y32450D01*
X306596Y32184D01*
X306310Y31924D01*
X306017Y31671D01*
X305719Y31425D01*
X305415Y31187D01*
X305105Y30956D01*
X304789Y30732D01*
X304468Y30516D01*
X304142Y30309D01*
X303811Y30108D01*
X303476Y29917D01*
X303136Y29733D01*
X302791Y29557D01*
X302442Y29390D01*
X302090Y29231D01*
X301734Y29081D01*
X301374Y28940D01*
X301011Y28807D01*
X300644Y28683D01*
X300275Y28568D01*
X299903Y28462D01*
X299529Y28365D01*
X299153Y28277D01*
X298774Y28198D01*
X298394Y28128D01*
X298012Y28068D01*
X297629Y28017D01*
X297244Y27975D01*
X296859Y27942D01*
X296473Y27919D01*
X296087Y27905D01*
X295700Y27900D01*
D11*
X26700Y43400D02*
X26808Y40916D01*
X27133Y38451D01*
X27671Y36024D01*
X28419Y33652D01*
X29370Y31355D01*
X30518Y29150D01*
X31854Y27053D01*
X33368Y25081D01*
X35047Y23247D01*
X36881Y21568D01*
X38853Y20054D01*
X40950Y18718D01*
X43155Y17570D01*
X45452Y16619D01*
X47824Y15871D01*
X50251Y15333D01*
X52716Y15008D01*
X55200Y14900D01*
X378200Y14900D01*
X380684Y15008D01*
X383149Y15333D01*
X385576Y15871D01*
X387948Y16619D01*
X390245Y17570D01*
X392450Y18718D01*
X394547Y20054D01*
X396519Y21568D01*
X398353Y23247D01*
X400032Y25081D01*
X401546Y27053D01*
X402882Y29150D01*
X404030Y31355D01*
X404981Y33652D01*
X405729Y36024D01*
X406267Y38451D01*
X406592Y40916D01*
X406700Y43400D01*
X406700Y45400D01*
X406592Y47884D01*
X406267Y50349D01*
X405729Y52776D01*
X404981Y55148D01*
X404030Y57445D01*
X402882Y59650D01*
X401546Y61747D01*
X400032Y63719D01*
X398353Y65553D01*
X396519Y67232D01*
X394547Y68746D01*
X392450Y70082D01*
X390245Y71230D01*
X387948Y72181D01*
X385576Y72929D01*
X383149Y73467D01*
X380684Y73792D01*
X378200Y73900D01*
X55200Y73900D01*
X52716Y73792D01*
X50251Y73467D01*
X47824Y72929D01*
X45452Y72181D01*
X43155Y71230D01*
X40950Y70082D01*
X38853Y68746D01*
X36881Y67232D01*
X35047Y65553D01*
X33368Y63719D01*
X31854Y61747D01*
X30518Y59650D01*
X29370Y57445D01*
X28419Y55148D01*
X27671Y52776D01*
X27133Y50349D01*
X26808Y47884D01*
X26700Y45400D01*
X26700Y43400D01*
X39700Y43900D02*
X39761Y42506D01*
X39943Y41122D01*
X40245Y39759D01*
X40665Y38428D01*
X41199Y37138D01*
X41844Y35900D01*
X42594Y34723D01*
X43443Y33615D01*
X44386Y32586D01*
X45415Y31643D01*
X46523Y30794D01*
X47700Y30044D01*
X48938Y29399D01*
X50228Y28865D01*
X51559Y28445D01*
X52922Y28143D01*
X54306Y27961D01*
X55700Y27900D01*
X295700Y27900D01*
X297095Y27961D01*
X298478Y28143D01*
X299841Y28445D01*
X301172Y28865D01*
X302462Y29399D01*
X303700Y30044D01*
X304877Y30794D01*
X305985Y31643D01*
X307014Y32586D01*
X307957Y33615D01*
X308806Y34723D01*
X309556Y35900D01*
X310201Y37138D01*
X310735Y38428D01*
X311155Y39759D01*
X311457Y41122D01*
X311639Y42506D01*
X311700Y43900D01*
X311700Y44900D01*
X311639Y46295D01*
X311457Y47678D01*
X311155Y49041D01*
X310735Y50372D01*
X310201Y51662D01*
X309556Y52900D01*
X308806Y54077D01*
X307957Y55185D01*
X307014Y56214D01*
X305985Y57157D01*
X304877Y58006D01*
X303700Y58756D01*
X302462Y59401D01*
X301172Y59935D01*
X299841Y60355D01*
X298478Y60657D01*
X297095Y60839D01*
X295700Y60900D01*
X55700Y60900D01*
X54306Y60839D01*
X52922Y60657D01*
X51559Y60355D01*
X50228Y59935D01*
X48938Y59401D01*
X47700Y58756D01*
X46523Y58006D01*
X45415Y57157D01*
X44386Y56214D01*
X43443Y55185D01*
X42594Y54077D01*
X41844Y52900D01*
X41199Y51662D01*
X40665Y50372D01*
X40245Y49041D01*
X39943Y47678D01*
X39761Y46295D01*
X39700Y44900D01*
X39700Y43900D01*
M02*
