G04 EAGLE Gerber RS-274X export*
G75*
%MOMM*%
%FSLAX34Y34*%
%LPD*%
%INSolderpaste Top*%
%IPPOS*%
%AMOC8*
5,1,8,0,0,1.08239X$1,22.5*%
G01*
%ADD10C,0.080000*%
%ADD11R,1.570000X0.570000*%
%ADD12C,0.012500*%


D10*
X314500Y23500D02*
X314500Y20300D01*
X305300Y20300D01*
X305300Y23500D01*
X314500Y23500D01*
X314500Y21060D02*
X305300Y21060D01*
X305300Y21820D02*
X314500Y21820D01*
X314500Y22580D02*
X305300Y22580D01*
X305300Y23340D02*
X314500Y23340D01*
X314500Y36300D02*
X314500Y39500D01*
X314500Y36300D02*
X305300Y36300D01*
X305300Y39500D01*
X314500Y39500D01*
X314500Y37060D02*
X305300Y37060D01*
X305300Y37820D02*
X314500Y37820D01*
X314500Y38580D02*
X305300Y38580D01*
X305300Y39340D02*
X314500Y39340D01*
X336100Y17100D02*
X339300Y17100D01*
X339300Y7900D01*
X336100Y7900D01*
X336100Y17100D01*
X336100Y8660D02*
X339300Y8660D01*
X339300Y9420D02*
X336100Y9420D01*
X336100Y10180D02*
X339300Y10180D01*
X339300Y10940D02*
X336100Y10940D01*
X336100Y11700D02*
X339300Y11700D01*
X339300Y12460D02*
X336100Y12460D01*
X336100Y13220D02*
X339300Y13220D01*
X339300Y13980D02*
X336100Y13980D01*
X336100Y14740D02*
X339300Y14740D01*
X339300Y15500D02*
X336100Y15500D01*
X336100Y16260D02*
X339300Y16260D01*
X339300Y17020D02*
X336100Y17020D01*
X323300Y17100D02*
X320100Y17100D01*
X323300Y17100D02*
X323300Y7900D01*
X320100Y7900D01*
X320100Y17100D01*
X320100Y8660D02*
X323300Y8660D01*
X323300Y9420D02*
X320100Y9420D01*
X320100Y10180D02*
X323300Y10180D01*
X323300Y10940D02*
X320100Y10940D01*
X320100Y11700D02*
X323300Y11700D01*
X323300Y12460D02*
X320100Y12460D01*
X320100Y13220D02*
X323300Y13220D01*
X323300Y13980D02*
X320100Y13980D01*
X320100Y14740D02*
X323300Y14740D01*
X323300Y15500D02*
X320100Y15500D01*
X320100Y16260D02*
X323300Y16260D01*
X323300Y17020D02*
X320100Y17020D01*
D11*
X341000Y36650D03*
X341000Y21350D03*
X358000Y36650D03*
X358000Y21350D03*
D10*
X323500Y40900D02*
X320300Y40900D01*
X320300Y50100D01*
X323500Y50100D01*
X323500Y40900D01*
X323500Y41660D02*
X320300Y41660D01*
X320300Y42420D02*
X323500Y42420D01*
X323500Y43180D02*
X320300Y43180D01*
X320300Y43940D02*
X323500Y43940D01*
X323500Y44700D02*
X320300Y44700D01*
X320300Y45460D02*
X323500Y45460D01*
X323500Y46220D02*
X320300Y46220D01*
X320300Y46980D02*
X323500Y46980D01*
X323500Y47740D02*
X320300Y47740D01*
X320300Y48500D02*
X323500Y48500D01*
X323500Y49260D02*
X320300Y49260D01*
X320300Y50020D02*
X323500Y50020D01*
X336300Y40900D02*
X339500Y40900D01*
X336300Y40900D02*
X336300Y50100D01*
X339500Y50100D01*
X339500Y40900D01*
X339500Y41660D02*
X336300Y41660D01*
X336300Y42420D02*
X339500Y42420D01*
X339500Y43180D02*
X336300Y43180D01*
X336300Y43940D02*
X339500Y43940D01*
X339500Y44700D02*
X336300Y44700D01*
X336300Y45460D02*
X339500Y45460D01*
X339500Y46220D02*
X336300Y46220D01*
X336300Y46980D02*
X339500Y46980D01*
X339500Y47740D02*
X336300Y47740D01*
X336300Y48500D02*
X339500Y48500D01*
X339500Y49260D02*
X336300Y49260D01*
X336300Y50020D02*
X339500Y50020D01*
D12*
X331838Y30788D02*
X327462Y30788D01*
X331838Y30788D02*
X331838Y28412D01*
X327462Y28412D01*
X327462Y30788D01*
X327462Y28531D02*
X331838Y28531D01*
X331838Y28650D02*
X327462Y28650D01*
X327462Y28769D02*
X331838Y28769D01*
X331838Y28888D02*
X327462Y28888D01*
X327462Y29007D02*
X331838Y29007D01*
X331838Y29126D02*
X327462Y29126D01*
X327462Y29245D02*
X331838Y29245D01*
X331838Y29364D02*
X327462Y29364D01*
X327462Y29483D02*
X331838Y29483D01*
X331838Y29602D02*
X327462Y29602D01*
X327462Y29721D02*
X331838Y29721D01*
X331838Y29840D02*
X327462Y29840D01*
X327462Y29959D02*
X331838Y29959D01*
X331838Y30078D02*
X327462Y30078D01*
X327462Y30197D02*
X331838Y30197D01*
X331838Y30316D02*
X327462Y30316D01*
X327462Y30435D02*
X331838Y30435D01*
X331838Y30554D02*
X327462Y30554D01*
X327462Y30673D02*
X331838Y30673D01*
X320088Y25788D02*
X320088Y21412D01*
X317712Y21412D01*
X317712Y25788D01*
X320088Y25788D01*
X320088Y21531D02*
X317712Y21531D01*
X317712Y21650D02*
X320088Y21650D01*
X320088Y21769D02*
X317712Y21769D01*
X317712Y21888D02*
X320088Y21888D01*
X320088Y22007D02*
X317712Y22007D01*
X317712Y22126D02*
X320088Y22126D01*
X320088Y22245D02*
X317712Y22245D01*
X317712Y22364D02*
X320088Y22364D01*
X320088Y22483D02*
X317712Y22483D01*
X317712Y22602D02*
X320088Y22602D01*
X320088Y22721D02*
X317712Y22721D01*
X317712Y22840D02*
X320088Y22840D01*
X320088Y22959D02*
X317712Y22959D01*
X317712Y23078D02*
X320088Y23078D01*
X320088Y23197D02*
X317712Y23197D01*
X317712Y23316D02*
X320088Y23316D01*
X320088Y23435D02*
X317712Y23435D01*
X317712Y23554D02*
X320088Y23554D01*
X320088Y23673D02*
X317712Y23673D01*
X317712Y23792D02*
X320088Y23792D01*
X320088Y23911D02*
X317712Y23911D01*
X317712Y24030D02*
X320088Y24030D01*
X320088Y24149D02*
X317712Y24149D01*
X317712Y24268D02*
X320088Y24268D01*
X320088Y24387D02*
X317712Y24387D01*
X317712Y24506D02*
X320088Y24506D01*
X320088Y24625D02*
X317712Y24625D01*
X317712Y24744D02*
X320088Y24744D01*
X320088Y24863D02*
X317712Y24863D01*
X317712Y24982D02*
X320088Y24982D01*
X320088Y25101D02*
X317712Y25101D01*
X317712Y25220D02*
X320088Y25220D01*
X320088Y25339D02*
X317712Y25339D01*
X317712Y25458D02*
X320088Y25458D01*
X320088Y25577D02*
X317712Y25577D01*
X317712Y25696D02*
X320088Y25696D01*
X320338Y28412D02*
X315962Y28412D01*
X315962Y30788D01*
X320338Y30788D01*
X320338Y28412D01*
X320338Y28531D02*
X315962Y28531D01*
X315962Y28650D02*
X320338Y28650D01*
X320338Y28769D02*
X315962Y28769D01*
X315962Y28888D02*
X320338Y28888D01*
X320338Y29007D02*
X315962Y29007D01*
X315962Y29126D02*
X320338Y29126D01*
X320338Y29245D02*
X315962Y29245D01*
X315962Y29364D02*
X320338Y29364D01*
X320338Y29483D02*
X315962Y29483D01*
X315962Y29602D02*
X320338Y29602D01*
X320338Y29721D02*
X315962Y29721D01*
X315962Y29840D02*
X320338Y29840D01*
X320338Y29959D02*
X315962Y29959D01*
X315962Y30078D02*
X320338Y30078D01*
X320338Y30197D02*
X315962Y30197D01*
X315962Y30316D02*
X320338Y30316D01*
X320338Y30435D02*
X315962Y30435D01*
X315962Y30554D02*
X320338Y30554D01*
X320338Y30673D02*
X315962Y30673D01*
X330088Y25788D02*
X330088Y21412D01*
X327712Y21412D01*
X327712Y25788D01*
X330088Y25788D01*
X330088Y21531D02*
X327712Y21531D01*
X327712Y21650D02*
X330088Y21650D01*
X330088Y21769D02*
X327712Y21769D01*
X327712Y21888D02*
X330088Y21888D01*
X330088Y22007D02*
X327712Y22007D01*
X327712Y22126D02*
X330088Y22126D01*
X330088Y22245D02*
X327712Y22245D01*
X327712Y22364D02*
X330088Y22364D01*
X330088Y22483D02*
X327712Y22483D01*
X327712Y22602D02*
X330088Y22602D01*
X330088Y22721D02*
X327712Y22721D01*
X327712Y22840D02*
X330088Y22840D01*
X330088Y22959D02*
X327712Y22959D01*
X327712Y23078D02*
X330088Y23078D01*
X330088Y23197D02*
X327712Y23197D01*
X327712Y23316D02*
X330088Y23316D01*
X330088Y23435D02*
X327712Y23435D01*
X327712Y23554D02*
X330088Y23554D01*
X330088Y23673D02*
X327712Y23673D01*
X327712Y23792D02*
X330088Y23792D01*
X330088Y23911D02*
X327712Y23911D01*
X327712Y24030D02*
X330088Y24030D01*
X330088Y24149D02*
X327712Y24149D01*
X327712Y24268D02*
X330088Y24268D01*
X330088Y24387D02*
X327712Y24387D01*
X327712Y24506D02*
X330088Y24506D01*
X330088Y24625D02*
X327712Y24625D01*
X327712Y24744D02*
X330088Y24744D01*
X330088Y24863D02*
X327712Y24863D01*
X327712Y24982D02*
X330088Y24982D01*
X330088Y25101D02*
X327712Y25101D01*
X327712Y25220D02*
X330088Y25220D01*
X330088Y25339D02*
X327712Y25339D01*
X327712Y25458D02*
X330088Y25458D01*
X330088Y25577D02*
X327712Y25577D01*
X327712Y25696D02*
X330088Y25696D01*
X327712Y33412D02*
X327712Y37788D01*
X330088Y37788D01*
X330088Y33412D01*
X327712Y33412D01*
X327712Y33531D02*
X330088Y33531D01*
X330088Y33650D02*
X327712Y33650D01*
X327712Y33769D02*
X330088Y33769D01*
X330088Y33888D02*
X327712Y33888D01*
X327712Y34007D02*
X330088Y34007D01*
X330088Y34126D02*
X327712Y34126D01*
X327712Y34245D02*
X330088Y34245D01*
X330088Y34364D02*
X327712Y34364D01*
X327712Y34483D02*
X330088Y34483D01*
X330088Y34602D02*
X327712Y34602D01*
X327712Y34721D02*
X330088Y34721D01*
X330088Y34840D02*
X327712Y34840D01*
X327712Y34959D02*
X330088Y34959D01*
X330088Y35078D02*
X327712Y35078D01*
X327712Y35197D02*
X330088Y35197D01*
X330088Y35316D02*
X327712Y35316D01*
X327712Y35435D02*
X330088Y35435D01*
X330088Y35554D02*
X327712Y35554D01*
X327712Y35673D02*
X330088Y35673D01*
X330088Y35792D02*
X327712Y35792D01*
X327712Y35911D02*
X330088Y35911D01*
X330088Y36030D02*
X327712Y36030D01*
X327712Y36149D02*
X330088Y36149D01*
X330088Y36268D02*
X327712Y36268D01*
X327712Y36387D02*
X330088Y36387D01*
X330088Y36506D02*
X327712Y36506D01*
X327712Y36625D02*
X330088Y36625D01*
X330088Y36744D02*
X327712Y36744D01*
X327712Y36863D02*
X330088Y36863D01*
X330088Y36982D02*
X327712Y36982D01*
X327712Y37101D02*
X330088Y37101D01*
X330088Y37220D02*
X327712Y37220D01*
X327712Y37339D02*
X330088Y37339D01*
X330088Y37458D02*
X327712Y37458D01*
X327712Y37577D02*
X330088Y37577D01*
X330088Y37696D02*
X327712Y37696D01*
X322712Y37788D02*
X322712Y33412D01*
X322712Y37788D02*
X325088Y37788D01*
X325088Y33412D01*
X322712Y33412D01*
X322712Y33531D02*
X325088Y33531D01*
X325088Y33650D02*
X322712Y33650D01*
X322712Y33769D02*
X325088Y33769D01*
X325088Y33888D02*
X322712Y33888D01*
X322712Y34007D02*
X325088Y34007D01*
X325088Y34126D02*
X322712Y34126D01*
X322712Y34245D02*
X325088Y34245D01*
X325088Y34364D02*
X322712Y34364D01*
X322712Y34483D02*
X325088Y34483D01*
X325088Y34602D02*
X322712Y34602D01*
X322712Y34721D02*
X325088Y34721D01*
X325088Y34840D02*
X322712Y34840D01*
X322712Y34959D02*
X325088Y34959D01*
X325088Y35078D02*
X322712Y35078D01*
X322712Y35197D02*
X325088Y35197D01*
X325088Y35316D02*
X322712Y35316D01*
X322712Y35435D02*
X325088Y35435D01*
X325088Y35554D02*
X322712Y35554D01*
X322712Y35673D02*
X325088Y35673D01*
X325088Y35792D02*
X322712Y35792D01*
X322712Y35911D02*
X325088Y35911D01*
X325088Y36030D02*
X322712Y36030D01*
X322712Y36149D02*
X325088Y36149D01*
X325088Y36268D02*
X322712Y36268D01*
X322712Y36387D02*
X325088Y36387D01*
X325088Y36506D02*
X322712Y36506D01*
X322712Y36625D02*
X325088Y36625D01*
X325088Y36744D02*
X322712Y36744D01*
X322712Y36863D02*
X325088Y36863D01*
X325088Y36982D02*
X322712Y36982D01*
X322712Y37101D02*
X325088Y37101D01*
X325088Y37220D02*
X322712Y37220D01*
X322712Y37339D02*
X325088Y37339D01*
X325088Y37458D02*
X322712Y37458D01*
X322712Y37577D02*
X325088Y37577D01*
X325088Y37696D02*
X322712Y37696D01*
X317712Y37788D02*
X317712Y33412D01*
X317712Y37788D02*
X320088Y37788D01*
X320088Y33412D01*
X317712Y33412D01*
X317712Y33531D02*
X320088Y33531D01*
X320088Y33650D02*
X317712Y33650D01*
X317712Y33769D02*
X320088Y33769D01*
X320088Y33888D02*
X317712Y33888D01*
X317712Y34007D02*
X320088Y34007D01*
X320088Y34126D02*
X317712Y34126D01*
X317712Y34245D02*
X320088Y34245D01*
X320088Y34364D02*
X317712Y34364D01*
X317712Y34483D02*
X320088Y34483D01*
X320088Y34602D02*
X317712Y34602D01*
X317712Y34721D02*
X320088Y34721D01*
X320088Y34840D02*
X317712Y34840D01*
X317712Y34959D02*
X320088Y34959D01*
X320088Y35078D02*
X317712Y35078D01*
X317712Y35197D02*
X320088Y35197D01*
X320088Y35316D02*
X317712Y35316D01*
X317712Y35435D02*
X320088Y35435D01*
X320088Y35554D02*
X317712Y35554D01*
X317712Y35673D02*
X320088Y35673D01*
X320088Y35792D02*
X317712Y35792D01*
X317712Y35911D02*
X320088Y35911D01*
X320088Y36030D02*
X317712Y36030D01*
X317712Y36149D02*
X320088Y36149D01*
X320088Y36268D02*
X317712Y36268D01*
X317712Y36387D02*
X320088Y36387D01*
X320088Y36506D02*
X317712Y36506D01*
X317712Y36625D02*
X320088Y36625D01*
X320088Y36744D02*
X317712Y36744D01*
X317712Y36863D02*
X320088Y36863D01*
X320088Y36982D02*
X317712Y36982D01*
X317712Y37101D02*
X320088Y37101D01*
X320088Y37220D02*
X317712Y37220D01*
X317712Y37339D02*
X320088Y37339D01*
X320088Y37458D02*
X317712Y37458D01*
X317712Y37577D02*
X320088Y37577D01*
X320088Y37696D02*
X317712Y37696D01*
X325088Y25788D02*
X325088Y21412D01*
X322712Y21412D01*
X322712Y25788D01*
X325088Y25788D01*
X325088Y21531D02*
X322712Y21531D01*
X322712Y21650D02*
X325088Y21650D01*
X325088Y21769D02*
X322712Y21769D01*
X322712Y21888D02*
X325088Y21888D01*
X325088Y22007D02*
X322712Y22007D01*
X322712Y22126D02*
X325088Y22126D01*
X325088Y22245D02*
X322712Y22245D01*
X322712Y22364D02*
X325088Y22364D01*
X325088Y22483D02*
X322712Y22483D01*
X322712Y22602D02*
X325088Y22602D01*
X325088Y22721D02*
X322712Y22721D01*
X322712Y22840D02*
X325088Y22840D01*
X325088Y22959D02*
X322712Y22959D01*
X322712Y23078D02*
X325088Y23078D01*
X325088Y23197D02*
X322712Y23197D01*
X322712Y23316D02*
X325088Y23316D01*
X325088Y23435D02*
X322712Y23435D01*
X322712Y23554D02*
X325088Y23554D01*
X325088Y23673D02*
X322712Y23673D01*
X322712Y23792D02*
X325088Y23792D01*
X325088Y23911D02*
X322712Y23911D01*
X322712Y24030D02*
X325088Y24030D01*
X325088Y24149D02*
X322712Y24149D01*
X322712Y24268D02*
X325088Y24268D01*
X325088Y24387D02*
X322712Y24387D01*
X322712Y24506D02*
X325088Y24506D01*
X325088Y24625D02*
X322712Y24625D01*
X322712Y24744D02*
X325088Y24744D01*
X325088Y24863D02*
X322712Y24863D01*
X322712Y24982D02*
X325088Y24982D01*
X325088Y25101D02*
X322712Y25101D01*
X322712Y25220D02*
X325088Y25220D01*
X325088Y25339D02*
X322712Y25339D01*
X322712Y25458D02*
X325088Y25458D01*
X325088Y25577D02*
X322712Y25577D01*
X322712Y25696D02*
X325088Y25696D01*
M02*
