G04 EAGLE Gerber RS-274X export*
G75*
%MOMM*%
%FSLAX34Y34*%
%LPD*%
%INSoldermask Top*%
%IPPOS*%
%AMOC8*
5,1,8,0,0,1.08239X$1,22.5*%
G01*
%ADD10C,0.118800*%
%ADD11R,1.610000X0.610000*%
%ADD12C,0.052200*%


D10*
X314506Y23506D02*
X314506Y20294D01*
X305294Y20294D01*
X305294Y23506D01*
X314506Y23506D01*
X314506Y21423D02*
X305294Y21423D01*
X305294Y22552D02*
X314506Y22552D01*
X314506Y36294D02*
X314506Y39506D01*
X314506Y36294D02*
X305294Y36294D01*
X305294Y39506D01*
X314506Y39506D01*
X314506Y37423D02*
X305294Y37423D01*
X305294Y38552D02*
X314506Y38552D01*
X336094Y17106D02*
X339306Y17106D01*
X339306Y7894D01*
X336094Y7894D01*
X336094Y17106D01*
X336094Y9023D02*
X339306Y9023D01*
X339306Y10152D02*
X336094Y10152D01*
X336094Y11281D02*
X339306Y11281D01*
X339306Y12410D02*
X336094Y12410D01*
X336094Y13539D02*
X339306Y13539D01*
X339306Y14668D02*
X336094Y14668D01*
X336094Y15797D02*
X339306Y15797D01*
X339306Y16926D02*
X336094Y16926D01*
X323306Y17106D02*
X320094Y17106D01*
X323306Y17106D02*
X323306Y7894D01*
X320094Y7894D01*
X320094Y17106D01*
X320094Y9023D02*
X323306Y9023D01*
X323306Y10152D02*
X320094Y10152D01*
X320094Y11281D02*
X323306Y11281D01*
X323306Y12410D02*
X320094Y12410D01*
X320094Y13539D02*
X323306Y13539D01*
X323306Y14668D02*
X320094Y14668D01*
X320094Y15797D02*
X323306Y15797D01*
X323306Y16926D02*
X320094Y16926D01*
D11*
X341000Y36650D03*
X341000Y21350D03*
X358000Y36650D03*
X358000Y21350D03*
D10*
X323506Y40894D02*
X320294Y40894D01*
X320294Y50106D01*
X323506Y50106D01*
X323506Y40894D01*
X323506Y42023D02*
X320294Y42023D01*
X320294Y43152D02*
X323506Y43152D01*
X323506Y44281D02*
X320294Y44281D01*
X320294Y45410D02*
X323506Y45410D01*
X323506Y46539D02*
X320294Y46539D01*
X320294Y47668D02*
X323506Y47668D01*
X323506Y48797D02*
X320294Y48797D01*
X320294Y49926D02*
X323506Y49926D01*
X336294Y40894D02*
X339506Y40894D01*
X336294Y40894D02*
X336294Y50106D01*
X339506Y50106D01*
X339506Y40894D01*
X339506Y42023D02*
X336294Y42023D01*
X336294Y43152D02*
X339506Y43152D01*
X339506Y44281D02*
X336294Y44281D01*
X336294Y45410D02*
X339506Y45410D01*
X339506Y46539D02*
X336294Y46539D01*
X336294Y47668D02*
X339506Y47668D01*
X339506Y48797D02*
X336294Y48797D01*
X336294Y49926D02*
X339506Y49926D01*
D12*
X331839Y30789D02*
X327461Y30789D01*
X331839Y30789D02*
X331839Y28411D01*
X327461Y28411D01*
X327461Y30789D01*
X327461Y28907D02*
X331839Y28907D01*
X331839Y29403D02*
X327461Y29403D01*
X327461Y29899D02*
X331839Y29899D01*
X331839Y30395D02*
X327461Y30395D01*
X320089Y25789D02*
X320089Y21411D01*
X317711Y21411D01*
X317711Y25789D01*
X320089Y25789D01*
X320089Y21907D02*
X317711Y21907D01*
X317711Y22403D02*
X320089Y22403D01*
X320089Y22899D02*
X317711Y22899D01*
X317711Y23395D02*
X320089Y23395D01*
X320089Y23891D02*
X317711Y23891D01*
X317711Y24387D02*
X320089Y24387D01*
X320089Y24883D02*
X317711Y24883D01*
X317711Y25379D02*
X320089Y25379D01*
X320339Y28411D02*
X315961Y28411D01*
X315961Y30789D01*
X320339Y30789D01*
X320339Y28411D01*
X320339Y28907D02*
X315961Y28907D01*
X315961Y29403D02*
X320339Y29403D01*
X320339Y29899D02*
X315961Y29899D01*
X315961Y30395D02*
X320339Y30395D01*
X330089Y25789D02*
X330089Y21411D01*
X327711Y21411D01*
X327711Y25789D01*
X330089Y25789D01*
X330089Y21907D02*
X327711Y21907D01*
X327711Y22403D02*
X330089Y22403D01*
X330089Y22899D02*
X327711Y22899D01*
X327711Y23395D02*
X330089Y23395D01*
X330089Y23891D02*
X327711Y23891D01*
X327711Y24387D02*
X330089Y24387D01*
X330089Y24883D02*
X327711Y24883D01*
X327711Y25379D02*
X330089Y25379D01*
X327711Y33411D02*
X327711Y37789D01*
X330089Y37789D01*
X330089Y33411D01*
X327711Y33411D01*
X327711Y33907D02*
X330089Y33907D01*
X330089Y34403D02*
X327711Y34403D01*
X327711Y34899D02*
X330089Y34899D01*
X330089Y35395D02*
X327711Y35395D01*
X327711Y35891D02*
X330089Y35891D01*
X330089Y36387D02*
X327711Y36387D01*
X327711Y36883D02*
X330089Y36883D01*
X330089Y37379D02*
X327711Y37379D01*
X322711Y37789D02*
X322711Y33411D01*
X322711Y37789D02*
X325089Y37789D01*
X325089Y33411D01*
X322711Y33411D01*
X322711Y33907D02*
X325089Y33907D01*
X325089Y34403D02*
X322711Y34403D01*
X322711Y34899D02*
X325089Y34899D01*
X325089Y35395D02*
X322711Y35395D01*
X322711Y35891D02*
X325089Y35891D01*
X325089Y36387D02*
X322711Y36387D01*
X322711Y36883D02*
X325089Y36883D01*
X325089Y37379D02*
X322711Y37379D01*
X317711Y37789D02*
X317711Y33411D01*
X317711Y37789D02*
X320089Y37789D01*
X320089Y33411D01*
X317711Y33411D01*
X317711Y33907D02*
X320089Y33907D01*
X320089Y34403D02*
X317711Y34403D01*
X317711Y34899D02*
X320089Y34899D01*
X320089Y35395D02*
X317711Y35395D01*
X317711Y35891D02*
X320089Y35891D01*
X320089Y36387D02*
X317711Y36387D01*
X317711Y36883D02*
X320089Y36883D01*
X320089Y37379D02*
X317711Y37379D01*
X325089Y25789D02*
X325089Y21411D01*
X322711Y21411D01*
X322711Y25789D01*
X325089Y25789D01*
X325089Y21907D02*
X322711Y21907D01*
X322711Y22403D02*
X325089Y22403D01*
X325089Y22899D02*
X322711Y22899D01*
X322711Y23395D02*
X325089Y23395D01*
X325089Y23891D02*
X322711Y23891D01*
X322711Y24387D02*
X325089Y24387D01*
X325089Y24883D02*
X322711Y24883D01*
X322711Y25379D02*
X325089Y25379D01*
M02*
